<?xml version="1.0" encoding="UTF-8"?>
<svg width="22px" height="20px" viewBox="0 0 22 20" version="1.1" xmlns="http://www.w3.org/2000/svg" xmlns:xlink="http://www.w3.org/1999/xlink">
    <!-- Generator: Sketch 48.2 (47327) - http://www.bohemiancoding.com/sketch -->
    <title>icon_chat</title>
    <desc>Created with Sketch.</desc>
    <defs></defs>
    <g id="card" stroke="none" stroke-width="1" fill="none" fill-rule="evenodd" transform="translate(-263.000000, -14.000000)">
        <g id="icon_chat" transform="translate(264.000000, 15.000000)" stroke="#FFFFFF">
            <g>
                <path d="M10,16.225439 C10.8993552,16.225439 11.770981,16.1291216 12.6000596,15.948508 C12.6000596,15.948508 13.4340123,16.6323387 15.1019177,18 C15.3919578,15.9129115 15.5369779,14.8693672 15.5369779,14.8693672 C18.2273666,13.4153937 20,10.9319983 20,8.11271948 C20,3.63218823 15.5228475,0 10,0 C4.4771525,0 0,3.63218823 0,8.11271948 C0,12.5932507 4.4771525,16.225439 10,16.225439 Z" id="Oval-3"></path>
                <g id="Group" transform="translate(4.000000, 5.000000)" stroke-linecap="square">
                    <path d="M2.5,5.5 L9.5,5.5" id="Line"></path>
                    <path d="M0.5,1.5 L11.5,1.5" id="Line"></path>
                    <path d="M1.5,3.5 L10.5,3.5" id="Line"></path>
                </g>
            </g>
        </g>
    </g>
</svg>