<svg xmlns="http://www.w3.org/2000/svg" viewBox="1221 -446.5 20 20">
  <defs>
    <style>
      .cls-1 {
        fill: #fff;
      }
    </style>
  </defs>
  <g id="draw" transform="translate(1221 -446.5)">
    <path id="Shape" class="cls-1" d="M.361,20a.34.34,0,0,1-.137-.027.35.35,0,0,1-.119-.079.339.339,0,0,1-.071-.107l-.005-.013-.005-.013A.375.375,0,0,1,0,19.641a.015.015,0,0,1,0-.006.022.022,0,0,0,0-.007.409.409,0,0,1,.007-.073l1.28-5.376a.013.013,0,0,1,0-.005.008.008,0,0,0,0-.005A.106.106,0,0,1,1.3,14.15l0-.009a.328.328,0,0,1,.045-.086l0-.006.011-.013.005-.008.005-.008.01-.012L14.44.952A3.258,3.258,0,1,1,19.047,5.56L5.992,18.615l-.009.007-.019.014-.007.005a.317.317,0,0,1-.073.045l-.036.014a.038.038,0,0,0-.013.005l-.008,0-.007,0L.445,19.99A.374.374,0,0,1,.361,20ZM1.54,18.1a.362.362,0,0,1,.256.618l-.274.274,3.883-.924.178-1.6L3.73,16.67l-.04,0-.041,0a.06.06,0,0,1-.023-.007l-.016-.005-.006,0a.359.359,0,0,1-.068-.022.471.471,0,0,1-.05-.03.314.314,0,0,1-.057-.049.357.357,0,0,1-.036-.046.319.319,0,0,1-.034-.066.338.338,0,0,1-.019-.059.054.054,0,0,0-.005-.017.054.054,0,0,1,0-.016.049.049,0,0,1,0-.016v-.005a.144.144,0,0,0,0-.018.1.1,0,0,0,0-.016v-.005a.065.065,0,0,1,0-.019l.206-1.854-1.6.178L1.01,18.478l.275-.274A.359.359,0,0,1,1.54,18.1ZM14.183,7.5a.362.362,0,0,1,.257.618l-8.1,8.1-.128,1.153L16.231,7.351,12.648,3.768,2.627,13.789l1.152-.129,8.1-8.1a.362.362,0,1,1,.511.512l-8.1,8.1L4.1,15.9l1.727-.192,8.1-8.1A.36.36,0,0,1,14.183,7.5Zm-.511-4.757h0l-.512.512L16.744,6.84l.512-.512L13.672,2.744ZM14.7,1.72h0l-.512.512,3.584,3.584L18.28,5.3,14.7,1.72Zm2.051-1a2.52,2.52,0,0,0-1.519.5L18.77,4.772a2.545,2.545,0,0,0-.235-3.308A2.512,2.512,0,0,0,16.747.724Z"/>
  </g>
</svg>
