<svg id="Calque_1" data-name="Calque 1" xmlns="http://www.w3.org/2000/svg" xmlns:xlink="http://www.w3.org/1999/xlink" viewBox="0 0 46.09 62.12"><defs><style>.cls-1{fill:url(#Dégradé_sans_nom_37);}.cls-2{fill:none;stroke-linecap:round;stroke-linejoin:round;stroke-width:2px;stroke:url(#Dégradé_sans_nom_37-2);}</style><linearGradient id="Dégradé_sans_nom_37" x1="43.17" y1="44.86" x2="11.44" y2="13.13" gradientUnits="userSpaceOnUse"><stop offset="0" stop-color="#2065ed"/><stop offset="0.84" stop-color="#55c5f0"/></linearGradient><linearGradient id="Dégradé_sans_nom_37-2" x1="39.77" y1="71.74" x2="15.38" y2="47.35" xlink:href="#Dégradé_sans_nom_37"/></defs><title>puce</title><path class="cls-1" d="M38.2,8A20,20,0,0,0,28.22,5V4.88c-.21,0-.4,0-.61,0s-.4,0-.61,0V5A20,20,0,0,0,17,8c-7,4.53-9,13.85-5.28,21.28l6.71,13.42L27,61l9.76-18.31L43.48,29.3C47.19,21.87,45.16,12.55,38.2,8Zm-11,20.36a7.24,7.24,0,1,1,7.23-7.23A7.24,7.24,0,0,1,27.24,28.38Z" transform="translate(-4.53 -4.88)"/><path class="cls-2" d="M34.69,53.44c8.69.87,14.93,3.27,14.93,6.11,0,3.56-9.87,6.45-22,6.45s-22-2.89-22-6.45c0-2.71,5.71-5,13.79-6" transform="translate(-4.53 -4.88)"/></svg>